<svg xmlns="http://www.w3.org/2000/svg" viewBox="0 0 32 32">
  <defs>
    <linearGradient id="bg" x1="0" y1="0" x2="0" y2="1">
      <stop offset="0%" stop-color="#10b981"/>
      <stop offset="100%" stop-color="#0d9488"/>
    </linearGradient>
    <linearGradient id="leaf" x1="0" y1="0" x2="1" y2="1">
      <stop offset="0%" stop-color="#a7f3d0"/>
      <stop offset="100%" stop-color="#34d399"/>
    </linearGradient>
  </defs>
  <rect width="32" height="32" rx="7" fill="url(#bg)"/>
  <path d="M22.5 8c-7.5 0-13 4.5-13 11.5 0 1.5.4 2.9 1 4.1l1.6-1.6C12 21 12 20.3 12 19.5 12 14 16.5 10 22.5 10c.3 0 .6 0 .9.05C22.6 12 21 14 19 15.5c-2 1.5-4.3 2.5-6 3.5l1.4 1.4c1.7-1 3.6-2 5.6-3.5 2-1.6 3.6-3.7 4-6.4.05-.4.1-.9.1-1.4 0-.4-.4-.8-.8-.8-.3-.3-.6-.3-.8-.3z" fill="url(#leaf)"/>
</svg>
