<svg width="96" height="96" viewBox="0 0 96 96" fill="none" xmlns="http://www.w3.org/2000/svg">
  <rect width="96" height="96" rx="48" fill="#D1FAE5"/>
  <circle cx="48" cy="37" r="18" fill="#9CA3AF"/>
  <path d="M23 82C26.5 65.5 35.2 57 48 57C60.8 57 69.5 65.5 73 82H23Z" fill="#065F46"/>
  <path d="M34 35C36.5 24.8 43.5 20 52.5 20C61.5 20 66 26.7 66 35C61 32.4 55.7 31 50 31C44 31 38.7 32.3 34 35Z" fill="#374151"/>
  <circle cx="41" cy="39" r="2" fill="#111827"/>
  <circle cx="55" cy="39" r="2" fill="#111827"/>
  <path d="M42 48C45.5 50.5 50.5 50.5 54 48" stroke="#111827" stroke-width="3" stroke-linecap="round"/>
</svg>
