<svg width="96" height="96" viewBox="0 0 96 96" fill="none" xmlns="http://www.w3.org/2000/svg">
  <rect width="96" height="96" rx="48" fill="#FEF3C7"/>
  <circle cx="48" cy="38" r="18" fill="#A16207"/>
  <path d="M22 82C25.7 65.2 34.6 57 48 57C61.4 57 70.3 65.2 74 82H22Z" fill="#0F766E"/>
  <path d="M29 42C29 28.2 37.2 18 49 18C60.8 18 67 27.1 67 42C61 37.5 55.3 35.3 49.8 35.3C43.9 35.3 37 37.5 29 42Z" fill="#1F2937"/>
  <circle cx="41" cy="41" r="2" fill="#111827"/>
  <circle cx="55" cy="41" r="2" fill="#111827"/>
  <path d="M42 50C45.5 52.5 50.5 52.5 54 50" stroke="#111827" stroke-width="3" stroke-linecap="round"/>
</svg>
