<svg width="96" height="96" viewBox="0 0 96 96" fill="none" xmlns="http://www.w3.org/2000/svg">
  <rect width="96" height="96" rx="48" fill="#DBEAFE"/>
  <circle cx="48" cy="38" r="18" fill="#F2C9A0"/>
  <path d="M22 82C25.8 65.4 34.7 57 48 57C61.3 57 70.2 65.4 74 82H22Z" fill="#047857"/>
  <path d="M30 41C30 28.3 37.8 20 49 20C60.2 20 66 28.4 66 41C60.7 36.7 55.2 34.5 49.5 34.5C43.4 34.5 36.9 36.7 30 41Z" fill="#7C2D12"/>
  <circle cx="41" cy="41" r="2" fill="#111827"/>
  <circle cx="55" cy="41" r="2" fill="#111827"/>
  <path d="M42 50C45.6 52.4 50.4 52.4 54 50" stroke="#111827" stroke-width="3" stroke-linecap="round"/>
</svg>
